PathFileType	4	(X/Y/Z)	D:\TRACE\spot_10-12-23\spot_body_motion_3_5-v60.trc
DataRate	CameraRate	NumFrames	NumMarkers	Units	OrigDataRate	OrigDataStartFrame	OrigNumFrames
100.00	100.00	      14	9	mm	100.00	1	      7000
Frame#	Time	front left toe			Front right toe			aft left toe			aft right toe			Arm			FL body			FR body			AL Body			AR Body			
		X1	Y1	Z1	X2	Y2	Z2	X3	Y3	Z3	X4	Y4	Z4	X5	Y5	Z5	X6	Y6	Z6	X7	Y7	Z7	X8	Y8	Z8	X9	Y9	Z9	

1	0.000	-154.83287	15.50254	57.35820	235.87457	23.16424	28.51058	-198.76234	-92.14799	666.16876	187.37492	-88.82849	617.39429	55.03904	835.86163	-28.87253	-27.65020	573.75012	-62.68568	125.17587	579.25458	-52.84224	-81.66367	422.41513	806.45905	69.14659	421.54852	817.56659	
2	0.010	-154.84084	15.51210	57.41319	235.83308	23.14231	28.48730	-198.67249	-92.11546	666.23950	187.42764	-88.91778	617.44324	55.17599	835.75897	-28.09980	-27.37411	573.57007	-61.97492	125.18495	579.30914	-52.47599	-80.85675	422.15286	807.44617	69.47816	421.22366	818.06927	
3	0.020	-155.02658	15.68828	57.18652	235.88614	23.13247	28.48994	-198.58821	-92.05033	666.31781	187.45691	-88.98363	617.45898	55.43255	835.77496	-27.41201	-27.36262	573.55048	-61.34364	124.77804	579.52661	-51.52115	-80.60927	422.27686	807.55969	71.03115	421.70276	819.93555	
4	0.030	-154.83119	15.52160	57.44873	235.88240	23.11710	28.49507	-198.56892	-91.98955	666.43268	187.48845	-89.04989	617.49683	55.55517	835.85309	-26.62403	-27.01760	573.37061	-60.50113	125.72076	579.17993	-50.75089	-79.41075	422.05878	808.73920	70.88727	421.34973	820.13721	
5	0.040	-154.82693	15.51590	57.47498	235.98108	23.14237	28.40706	-198.53850	-91.91321	666.52185	187.50117	-89.11860	617.50128	55.63005	835.68445	-25.88496	-26.77026	573.28955	-59.64932	125.87482	579.13593	-50.32447	-78.79173	422.00174	809.50153	71.80109	421.21222	820.63538	
6	0.050	-154.77316	15.53844	57.49220	235.80898	23.25397	28.49207	-198.54277	-91.87379	666.60919	187.52325	-89.12314	617.56183	55.78822	835.64771	-25.23058	-26.75761	573.35388	-58.98974	126.31740	579.05280	-49.14843	-78.10572	421.86990	810.68658	72.43723	421.25720	821.34570	
7	0.060	-154.79012	15.66527	57.42508	235.94128	23.02410	28.52068	-198.50395	-91.89682	666.66595	187.55142	-89.17077	617.48547	56.04559	835.60126	-24.27904	-26.34311	573.22955	-58.09289	126.38423	579.13165	-48.84252	-77.59081	421.88739	811.33374	72.84015	421.06091	821.80560	
8	0.070	-154.74963	15.69286	57.50594	235.86620	23.19480	28.49054	-198.44319	-91.88503	666.70892	187.56993	-89.20565	617.54688	56.17242	835.59973	-23.56275	-26.12624	573.10217	-57.29767	126.60201	579.08173	-48.02756	-76.98414	421.89236	812.12799	73.21592	421.01459	822.64258	
9	0.080	-154.72578	15.74796	57.54817	235.94257	23.11920	28.50019	-198.41133	-91.78731	666.79254	187.62576	-89.23518	617.54474	56.28269	835.53894	-22.71853	-25.91942	573.00952	-56.39849	126.71857	579.07587	-46.87089	-76.12699	421.78836	813.01385	74.20843	421.01324	823.43848	
10	0.090	-154.70946	15.83725	57.61658	235.94681	23.14184	28.53835	-198.42024	-91.77746	666.87122	187.62819	-89.27299	617.55438	56.59814	835.53857	-21.85703	-25.55246	572.81842	-55.39404	127.15732	578.95154	-46.41721	-75.71191	421.82779	814.01508	74.68287	421.15137	824.15906	
11	0.100	-154.69865	15.89212	57.66145	235.96817	23.09525	28.55326	-198.37791	-91.75100	666.96277	187.58681	-89.30180	617.57727	56.88100	835.34924	-21.13910	-25.49027	572.86676	-54.77356	127.51875	578.79083	-45.30593	-74.98206	421.57788	814.89655	75.22276	421.21869	825.17572	
12	0.110	-154.69417	15.94696	57.76701	235.97304	23.06533	28.56079	-198.35193	-91.70964	667.01013	187.64514	-89.31441	617.57422	57.09396	835.18524	-20.11785	-24.95726	572.62738	-53.62557	127.68426	578.86096	-44.87505	-74.53380	421.69421	815.71619	75.97328	421.05542	826.04358	
13	0.120	-154.65337	15.98933	57.79913	235.98045	22.97921	28.61278	-198.33626	-91.66485	667.06335	187.64221	-89.37095	617.54938	57.39650	835.08722	-19.48001	-24.84755	572.74304	-52.92322	127.79559	578.63147	-43.83128	-73.92962	421.88425	816.65228	76.95370	421.11865	826.87952	
14	0.130	-154.66769	15.99699	57.87442	236.00610	22.93825	28.61469	-198.27461	-91.58164	667.11462	187.68575	-89.40285	617.58923	57.66236	834.96930	-18.52764	-24.58942	572.49713	-51.80307	128.15150	578.56470	-42.81104	-73.12888	421.79187	817.70111	77.48566	421.09015	828.31891	
